<svg width="400" height="400" viewBox="0 0 400 400" fill="none" xmlns="http://www.w3.org/2000/svg">
<g clip-path="url(#clip0_17_56)">
<mask id="mask0_17_56" style="mask-type:luminance" maskUnits="userSpaceOnUse" x="0" y="0" width="400" height="400">
<path d="M400 0H0V400H400V0Z" fill="white"/>
</mask>
<g mask="url(#mask0_17_56)">
<g filter="url(#filter0_d_17_56)">
<path d="M345 50H75C72.2386 50 70 52.2386 70 55V325C70 327.761 72.2386 330 75 330H345C347.761 330 350 327.761 350 325V55C350 52.2386 347.761 50 345 50Z" fill="url(#paint0_radial_17_56)"/>
</g>
<g filter="url(#filter1_d_17_56)">
<path d="M280 115H65C62.2386 115 60 117.239 60 120V335C60 337.761 62.2386 340 65 340H280C282.761 340 285 337.761 285 335V120C285 117.239 282.761 115 280 115Z" fill="url(#paint1_radial_17_56)"/>
</g>
<g filter="url(#filter2_d_17_56)">
<path d="M215 180H55C52.2386 180 50 182.239 50 185V345C50 347.761 52.2386 350 55 350H215C217.761 350 220 347.761 220 345V185C220 182.239 217.761 180 215 180Z" fill="url(#paint2_radial_17_56)"/>
</g>
<g filter="url(#filter3_d_17_56)">
<path d="M100.102 314V209.273H169.443V227.528H122.244V252.483H164.841V270.739H122.244V314H100.102Z" fill="white"/>
</g>
</g>
</g>
<defs>
<filter id="filter0_d_17_56" x="45" y="25" width="330" height="330" filterUnits="userSpaceOnUse" color-interpolation-filters="sRGB">
<feFlood flood-opacity="0" result="BackgroundImageFix"/>
<feColorMatrix in="SourceAlpha" type="matrix" values="0 0 0 0 0 0 0 0 0 0 0 0 0 0 0 0 0 0 127 0" result="hardAlpha"/>
<feOffset/>
<feGaussianBlur stdDeviation="12.5"/>
<feColorMatrix type="matrix" values="0 0 0 0 0 0 0 0 0 0 0 0 0 0 0 0 0 0 0.2 0"/>
<feBlend mode="normal" in2="BackgroundImageFix" result="effect1_dropShadow_17_56"/>
<feBlend mode="normal" in="SourceGraphic" in2="effect1_dropShadow_17_56" result="shape"/>
</filter>
<filter id="filter1_d_17_56" x="35" y="90" width="275" height="275" filterUnits="userSpaceOnUse" color-interpolation-filters="sRGB">
<feFlood flood-opacity="0" result="BackgroundImageFix"/>
<feColorMatrix in="SourceAlpha" type="matrix" values="0 0 0 0 0 0 0 0 0 0 0 0 0 0 0 0 0 0 127 0" result="hardAlpha"/>
<feOffset/>
<feGaussianBlur stdDeviation="12.5"/>
<feColorMatrix type="matrix" values="0 0 0 0 0 0 0 0 0 0 0 0 0 0 0 0 0 0 0.2 0"/>
<feBlend mode="normal" in2="BackgroundImageFix" result="effect1_dropShadow_17_56"/>
<feBlend mode="normal" in="SourceGraphic" in2="effect1_dropShadow_17_56" result="shape"/>
</filter>
<filter id="filter2_d_17_56" x="25" y="155" width="220" height="220" filterUnits="userSpaceOnUse" color-interpolation-filters="sRGB">
<feFlood flood-opacity="0" result="BackgroundImageFix"/>
<feColorMatrix in="SourceAlpha" type="matrix" values="0 0 0 0 0 0 0 0 0 0 0 0 0 0 0 0 0 0 127 0" result="hardAlpha"/>
<feOffset/>
<feGaussianBlur stdDeviation="12.5"/>
<feColorMatrix type="matrix" values="0 0 0 0 0 0 0 0 0 0 0 0 0 0 0 0 0 0 0.2 0"/>
<feBlend mode="normal" in2="BackgroundImageFix" result="effect1_dropShadow_17_56"/>
<feBlend mode="normal" in="SourceGraphic" in2="effect1_dropShadow_17_56" result="shape"/>
</filter>
<filter id="filter3_d_17_56" x="90.1023" y="202.273" width="89.3409" height="124.727" filterUnits="userSpaceOnUse" color-interpolation-filters="sRGB">
<feFlood flood-opacity="0" result="BackgroundImageFix"/>
<feColorMatrix in="SourceAlpha" type="matrix" values="0 0 0 0 0 0 0 0 0 0 0 0 0 0 0 0 0 0 127 0" result="hardAlpha"/>
<feOffset dy="3"/>
<feGaussianBlur stdDeviation="5"/>
<feColorMatrix type="matrix" values="0 0 0 0 0 0 0 0 0 0 0 0 0 0 0 0 0 0 0.161 0"/>
<feBlend mode="normal" in2="BackgroundImageFix" result="effect1_dropShadow_17_56"/>
<feBlend mode="normal" in="SourceGraphic" in2="effect1_dropShadow_17_56" result="shape"/>
</filter>
<radialGradient id="paint0_radial_17_56" cx="0" cy="0" r="1" gradientUnits="userSpaceOnUse" gradientTransform="translate(181.857 171.911) rotate(-45.2431) scale(401.463 231.962)">
<stop stop-color="#179C5A"/>
<stop offset="1" stop-color="#137745"/>
</radialGradient>
<radialGradient id="paint1_radial_17_56" cx="0" cy="0" r="1" gradientUnits="userSpaceOnUse" gradientTransform="translate(147.546 210.765) rotate(-45.4052) scale(321.26 177.216)">
<stop stop-color="#2A9761"/>
<stop offset="1" stop-color="#179C5A"/>
</radialGradient>
<radialGradient id="paint2_radial_17_56" cx="0" cy="0" r="1" gradientUnits="userSpaceOnUse" gradientTransform="translate(168.616 326.044) rotate(-46.9051) scale(199.009 190.559)">
<stop stop-color="#179C5A"/>
<stop offset="1" stop-color="#33D183"/>
</radialGradient>
<clipPath id="clip0_17_56">
<rect width="400" height="400" fill="white"/>
</clipPath>
</defs>
</svg>
